inDegrees=yes
name=ik_Xsens_quaternion
DataType=double
version=3
OpenSimVersion=4.4-2022-07-23-0e9fedc
endheader
time	pelvis_tilt	pelvis_list	pelvis_rotation	pelvis_tx	pelvis_ty	pelvis_tz	hip_flexion_r	hip_adduction_r	hip_rotation_r	knee_angle_r	knee_angle_r_beta	ankle_angle_r	subtalar_angle_r	mtp_angle_r	hip_flexion_l	hip_adduction_l	hip_rotation_l	knee_angle_l	knee_angle_l_beta	ankle_angle_l	subtalar_angle_l	mtp_angle_l	lumbar_extension	lumbar_bending	lumbar_rotation	arm_flex_r	arm_add_r	arm_rot_r	elbow_flex_r	pro_sup_r	wrist_flex_r	wrist_dev_r	arm_flex_l	arm_add_l	arm_rot_l	elbow_flex_l	pro_sup_l	wrist_flex_l	wrist_dev_l
37.46666666666667	0	0	0	0	0.93	0	0	0	0	0	0	0	0	0	119.9874762312971	-49.99921380917505	35.91411569851822	13.97324891386484	0.2438792007476629	0	0	0	0	0	0	0	0	0	0	0	0	0	0	0	0	0	0	0	0
37.48333333333333	-4.482904822689344e-25	6.324730254403648e-17	1.432121438168542e-25	4.612778315213378e-19	0.93	6.330431232198533e-20	-1.454461331043765e-29	-3.016402809883661e-16	0	0	-5.078366140276956e-17	9.009594153473527e-22	3.776228852229484e-24	6.219376343112288e-24	119.9799727509374	-49.99922015366369	35.70083768500977	12.80019672565141	0.2234055777656145	-1.255333662114273e-22	-3.500091428790281e-24	1.926950010828953e-22	1.013117841542595e-31	-5.305621669662504e-19	-5.121347318526881e-26	-2.026595496838894e-18	-1.252396373381837e-18	-3.255775394379631e-19	0	1.940848654755287e-23	1.367898946809769e-17	-4.15391582926218e-16	-1.803758151436489e-21	-7.768551794342398e-22	-9.707242515696288e-23	0	1.79713405330291e-23	-6.196034329721583e-18	1.887343566066591e-17
37.5	0	0	0	0	0.93	0	0	0	0	0	0	0	0	0	119.9437058161585	-49.99922605417694	35.27873617089862	11.41339785191706	0.199201371356001	0	0	0	0	0	0	0	0	0	5.819691983789966e-40	0	0	0	0	0	0	0	1.128256984923182e-38	0	0
37.51666666666667	0	0	0	0	0.93	0	0	0	0	3.260581745027664e-40	-7.580714121014371e-41	0	0	0	42.94241827001692	-49.99915312876964	-39.98403757426765	0.001538028365740915	2.684365897124652e-05	0	0	0	0	0	0	0	0	0	0	1.052357267868557e-38	0	0	0	0	0	1.052357267868557e-38	0	0	0
37.53333333333333	0	2.155227684594804e-34	0	0	0.93	0	5.25050051229192e-53	0	0	0	-5.404667650202283e-39	0	0	1.213183291684542e-36	43.31324196741942	-49.99913183141162	-39.98469724697397	0.001471417461768511	2.56810793791983e-05	0	0	0	0	3.738724060541744e-53	0	0	0	-1.654883830663428e-37	0	3.650947744414309e-39	0	0	-4.852990828655683e-36	0	0	0	3.650947744414309e-39	0	0
37.55	0	6.896728590703373e-34	2.370750453054284e-34	0	0.93	0	0	0	0	0	0	-2.396391271325369e-37	-4.477077693825286e-48	-6.742944188538618e-57	43.72931881825103	-49.9991090621203	-39.98507920198404	0.001406021815662582	2.453971003818083e-05	0	0	0	-4.67340507567718e-54	-5.707394230177008e-72	0	0	0	0	0	0	0	0	8.225221929050142e-55	-2.491578283070152e-36	0	0	0	0	0
37.56666666666666	0	-3.200432005345155e-34	-1.600216002672578e-34	0	0.93	0	0	0	0	2.352201792303972e-46	0	0	0	0	44.17170362409756	-49.99908590153306	-39.98550662927503	0.001343633529340872	2.345082902719005e-05	0	0	0	-2.088365044058489e-88	-1.95170502534933e-106	0	0	0	0	1.568134528202648e-46	0	0	0	2.812703367968118e-89	0	0	1.568134528202648e-46	0	0	0
37.58333333333334	0	0	-5.792174402348536e-35	0	0.93	0	0	0	0	0	0	0	0	0	44.70401609712543	-49.99906282001071	-39.98612714736243	0.001284615344918324	2.242076739046736e-05	0	0	0	0	0	0	0	0	0	0	0	0	0	0	0	0	0	0	0	0
37.6	0	1.551763932908259e-33	8.189865201460255e-34	0	0.93	0	0	0	0	0	0	0	0	0	45.28986141290932	-49.99904007709915	-39.98694950153523	0.001227755467466378	2.142837531665041e-05	0	0	0	0	0	0	0	0	0	0	0	0	0	0	0	0	0	0	0	0
37.61666666666667	0	1.939704916135324e-34	-4.310455369189608e-35	0	0.93	0	0	0	0	0	0	0	0	0	46.02612874236056	-49.99901803291408	-39.98759968251129	0.00117178695788922	2.045154054709503e-05	0	0	0	0	0	0	0	0	0	0	0	0	0	0	0	0	0	0	0	0
37.63333333333333	8.625627392602896e-31	3.795133036320802e-15	3.793314151941439e-31	-3.603298474930651e-17	0.93	-1.233414068861917e-17	-2.525900207115109e-42	-2.026311464999595e-28	3.30334682925373e-29	4.402162017414414e-08	7.68322982872432e-10	2.535004427539319e-09	-2.599782340739277e-08	4.088559537421127e-08	46.85209353683843	-49.99899354315196	-39.98778616909314	0.001118266383719241	1.951743031819231e-05	1.348693877336393e-09	9.389098224487341e-09	8.563773116542246e-09	2.921754700298986e-19	-2.751412501802837e-14	-2.418320167726392e-13	1.086743870211668e-08	-3.063211653082406e-09	1.372926472630359e-08	4.402162602251237e-08	4.402162017442565e-08	-5.846566530943465e-15	-2.199900127091384e-16	-6.237280548144026e-08	5.803598967585236e-08	1.299578451674434e-08	4.402162015292993e-08	4.402162017420626e-08	1.111927310496669e-13	2.621649665212639e-16
37.65	2.554189614194282e-34	8.620910738379216e-35	-1.153757061206309e-34	0	0.93	0	0	0	0	0	0	0	0	0	47.49105812606979	-49.99896366316855	-39.98768900011332	0.001069698685697514	1.866976406967759e-05	0	0	0	-3.738724060541744e-53	0	0	0	0	0	0	0	0	0	0	0	0	0	0	0	0
37.66666666666666	0	0	6.034637516865451e-34	0	0.93	0	0	0	0	0	0	0	0	0	47.8727953987791	-49.99892800954973	-39.98742673947984	0.001026852023435476	1.792194873971502e-05	0	0	0	0	0	0	0	0	0	0	0	0	0	0	0	0	0	0	0	0
37.68333333333333	0	0	0	0	0.93	0	1.033587754095204e-66	0	0	0	-6.842277657836021e-48	0	0	0	48.00213385014261	-49.99888865739418	-39.98697024618522	0.0009909254255739755	1.729491131799189e-05	0	0	0	0	0	0	0	0	0	0	0	0	0	0	0	0	0	0	0	0
37.7	0	0	0	0	0.93	0	0	0	0	1.417497303964441e-39	-1.836709923159824e-40	0	0	0	47.90726030944953	-49.99884790683453	-39.98645371861184	0.0009622929335578664	1.67951800592598e-05	0	0	0	0	0	0	0	0	0	8.420885070025866e-39	0	0	0	0	0	0	8.420885070025866e-39	0	0	0
37.71666666666667	0	0	0	0	0.93	0	0	0	0	1.052357267868557e-38	-1.836709923159824e-40	0	0	0	47.61102449840221	-49.99880525688938	-39.98612958482531	0.000939856350132536	1.64035878055894e-05	0	0	0	0	0	0	0	0	0	0	2.104714535737113e-38	0	0	0	0	0	0	2.104714535737113e-38	0	0
37.73333333333333	0	0	0	0	0.93	0	0	0	0	0	-1.836709923159824e-40	0	0	0	47.17035968872704	-49.9987593920979	-39.98589283067874	0.0009224496784374102	1.609978407269575e-05	0	0	0	0	0	0	0	0	0	1.052357267868557e-38	7.27405592610908e-39	0	0	0	0	0	1.052357267868557e-38	7.27405592610908e-39	0	0
37.75	0	0	3.211539513759023e-43	0	0.93	0	0	0	0	0	0	0	0	0	46.68787592372009	-49.9987109108372	-39.98583394673196	0.0009089768783608535	1.586463935189689e-05	0	0	0	0	0	0	0	0	0	0	0	0	0	0	0	0	0	0	0	0
37.76666666666667	0	0	0	0	0.93	0	0	0	0	0	0	0	0	0	46.29994052371881	-49.99866079757347	-39.98615708950212	0.0008984284317165224	1.568053422698237e-05	0	0	0	0	0	0	0	0	0	0	0	0	0	0	0	0	0	0	0	0
37.78333333333333	0	0	0	0	0.93	0	0	0	0	0	0	0	0	0	46.03214401881009	-49.99860608758659	-39.98656704591864	0.000889909818383224	1.553185637661202e-05	0	0	0	0	0	0	0	0	0	0	6.002171412806315e-39	0	0	0	0	0	0	6.002171412806315e-39	0	0
37.8	0	0	0	0	0.93	0	0	0	0	3.104991672359577e-39	0	0	0	0	45.85932620297056	-49.99854455407883	-39.98715457488579	0.0008832726460635466	1.541601586661142e-05	0	0	0	0	0	0	0	0	0	0	0	0	0	0	0	0	0	0	0	0
37.81666666666666	0	0	0	0	0.93	0	0	0	0	8.892730763698523e-40	0	0	0	0	45.72424995668755	-49.998475787214	-39.98783837834806	0.0008783621210732793	1.533031103752979e-05	0	0	0	0	0	0	0	0	0	0	0	0	0	0	0	0	0	0	0	0
37.83333333333334	0	0	0	0	0.93	0	0	0	0	0	0	0	0	0	45.59927052321864	-49.99840038324415	-39.98859727210149	0.0008750503026549959	1.527250890190256e-05	0	0	0	0	0	0	0	0	0	2.487424224448207e-39	0	0	0	0	0	0	2.487424224448207e-39	0	0	0
37.85	0	0	0	0	0.93	0	0	0	0	0	0	0	0	0	45.47209281223713	-49.99831705624251	-39.98928939255429	0.0008730792140565111	1.523810691601048e-05	0	0	0	0	0	0	0	0	0	0	0	0	0	0	0	0	0	0	0	0
37.86666666666667	0	0	0	0	0.93	0	0	0	0	0	0	0	0	0	45.36625600935739	-49.99821509333243	-39.98978368614888	0.0008750378425380789	1.527229143183717e-05	0	0	0	0	0	0	0	0	0	0	0	0	0	0	0	0	0	0	0	0
37.88333333333333	6.453993167790456e-26	9.529577075900645e-17	-4.280450116946464e-26	1.138420541606795e-19	0.93	-8.532696919713198e-19	-1.640392112149481e-28	-7.212846916749424e-19	0	0	-3.391828357865352e-17	1.085096769085341e-17	-1.875752189007079e-18	-2.971122822532695e-21	45.30158725291282	-49.99811434350826	-39.99017879930322	0.0008711958926863404	1.520523675722783e-05	1.958464885929126e-17	-1.89244249279585e-20	1.242428168530619e-20	0	1.238411134291023e-17	-8.157156306077406e-25	3.591573497743068e-16	-5.670553517268527e-21	-3.923614574829416e-18	0	0	2.933525388020182e-17	6.248130855713996e-17	-5.097987550212058e-17	2.578704092601665e-18	-2.156328757210464e-18	0	0	-2.105825376122089e-17	4.623909590520337e-19
37.9	0	0	0	0	0.93	0	0	0	0	0	-7.082156473086793e-43	0	0	0	45.15349008959786	-49.99799779490355	-39.9904612928664	0.0008713123963029739	1.520727012892856e-05	0	0	0	0	0	0	0	0	0	0	0	0	0	0	0	0	0	0	0	0
37.91666666666666	0	0	0	0	0.93	0	0	0	0	0	-7.082156473086793e-43	0	0	0	44.91686547376864	-49.99787385022104	-39.99073998911786	0.0008724733125303371	1.522753193943588e-05	0	0	0	0	0	0	0	0	0	1.590983697304394e-38	0	0	0	0	0	0	1.590983697304394e-38	0	0	0
37.93333333333333	0	0	0	0	0.93	0	0	0	0	0	-7.082156473086793e-43	0	0	0	44.74939187331886	-49.99774367112225	-39.99107986390216	0.0008742907047215342	1.52592514169723e-05	0	0	0	0	0	0	0	0	0	2.978597005184893e-39	4.521129190276164e-39	0	0	0	0	0	2.978597005184893e-39	4.521129190276164e-39	0	0
37.95	0	0	0	0	0.93	0	0	0	0	0	-8.072330140944788e-41	0	0	0	44.69849294373314	-49.99760526164049	-39.99146719275213	0.0008762403416300336	1.529327900024402e-05	0	0	0	0	0	0	0	0	0	1.052357267868557e-38	2.104714535737113e-38	0	0	0	0	0	1.052357267868557e-38	2.104714535737113e-38	0	0
37.96666666666667	-1.46970665613607e-28	5.453305243916056e-19	3.856434070643578e-27	1.063862981611175e-20	0.93	-7.701190771528339e-21	-2.375679458768953e-29	2.020102012224602e-18	0	0	-2.414217748638484e-17	-1.240408349641175e-17	-1.981905343989649e-17	-1.179107021788663e-17	44.70239035202665	-49.99746972486198	-39.99185316366689	0.0008784658192590451	1.533212091229975e-05	3.171823260889825e-19	-1.665168417818429e-19	-9.007575459031259e-18	0	-2.484212000234613e-17	-7.473210212997104e-26	-8.035823305281918e-19	-2.212555129178863e-21	-4.45494920717456e-17	0	0	-2.57511839618963e-19	-1.383926508910917e-19	-9.283533585979839e-17	-4.786442336161911e-17	4.174265135081827e-18	0	0	9.831173024006792e-19	-1.578568542818479e-19
